<?xml version="1.0" encoding="UTF-8" standalone="no"?>
<!-- Created with Inkscape (http://www.inkscape.org/) -->

<svg
   width="500"
   height="500"
   viewBox="0 0 132.29166 132.29167"
   version="1.1"
   id="svg5"
   inkscape:version="1.1.1 (3bf5ae0, 2021-09-20)"
   sodipodi:docname="infographic-1.svg"
   xmlns:inkscape="http://www.inkscape.org/namespaces/inkscape"
   xmlns:sodipodi="http://sodipodi.sourceforge.net/DTD/sodipodi-0.dtd"
   xmlns="http://www.w3.org/2000/svg"
   xmlns:svg="http://www.w3.org/2000/svg">
  <sodipodi:namedview
     id="namedview7"
     pagecolor="#ffffff"
     bordercolor="#666666"
     borderopacity="1.0"
     inkscape:pageshadow="2"
     inkscape:pageopacity="0.0"
     inkscape:pagecheckerboard="0"
     inkscape:document-units="px"
     showgrid="true"
     units="px"
     inkscape:zoom="0.5525"
     inkscape:cx="226.24434"
     inkscape:cy="387.33032"
     inkscape:window-width="1366"
     inkscape:window-height="713"
     inkscape:window-x="0"
     inkscape:window-y="0"
     inkscape:window-maximized="1"
     inkscape:current-layer="layer1"
     inkscape:snap-global="false">
    <inkscape:grid
       type="xygrid"
       id="grid824"
       spacingx="2.6458333"
       spacingy="2.6458333"
       empspacing="4" />
  </sodipodi:namedview>
  <defs
     id="defs2" />
  <g
     inkscape:groupmode="layer"
     id="layer2"
     inkscape:label="Layer 2">
    <rect
       style="fill:#171717;fill-opacity:1;stroke:none;stroke-width:1.2653;stroke-linecap:butt;stroke-linejoin:round;stroke-miterlimit:4;stroke-dasharray:none;stroke-opacity:1;paint-order:normal;stop-color:#000000"
       id="rect41915"
       width="24.654846"
       height="15.584599"
       x="105.20798"
       y="108.82561"
       ry="5.1948662" />
    <rect
       style="fill:#171717;fill-opacity:1;stroke:none;stroke-width:1.2653;stroke-linecap:butt;stroke-linejoin:round;stroke-miterlimit:4;stroke-dasharray:none;stroke-opacity:1;paint-order:normal;stop-color:#000000"
       id="rect42127"
       width="24.654846"
       height="15.584599"
       x="105.20798"
       y="108.82561"
       ry="5.1948662" />
    <rect
       style="fill:#171717;fill-opacity:1;stroke:none;stroke-width:1.2653;stroke-linecap:butt;stroke-linejoin:round;stroke-miterlimit:4;stroke-dasharray:none;stroke-opacity:1;paint-order:normal;stop-color:#000000"
       id="rect42129"
       width="24.654846"
       height="15.584599"
       x="71.870506"
       y="108.82561"
       ry="5.1948662" />
    <rect
       style="fill:#171717;fill-opacity:1;stroke:none;stroke-width:1.2653;stroke-linecap:butt;stroke-linejoin:round;stroke-miterlimit:4;stroke-dasharray:none;stroke-opacity:1;paint-order:normal;stop-color:#000000"
       id="rect42131"
       width="24.654846"
       height="15.584599"
       x="34.299667"
       y="108.82561"
       ry="5.1948662" />
    <rect
       style="fill:#171717;fill-opacity:1;stroke:none;stroke-width:1.2653;stroke-linecap:butt;stroke-linejoin:round;stroke-miterlimit:4;stroke-dasharray:none;stroke-opacity:1;paint-order:normal;stop-color:#000000"
       id="rect42133"
       width="24.654846"
       height="15.584599"
       x="4.6663313"
       y="108.82561"
       ry="5.1948662" />
    <rect
       style="fill:#171717;fill-opacity:1;stroke:none;stroke-width:1.2653;stroke-linecap:butt;stroke-linejoin:round;stroke-miterlimit:4;stroke-dasharray:none;stroke-opacity:1;paint-order:normal;stop-color:#000000"
       id="rect42135"
       width="24.654846"
       height="15.584599"
       x="54.408005"
       y="73.900612"
       ry="5.1948662" />
    <rect
       style="fill:#b5b5b5;fill-opacity:1;stroke:none;stroke-width:0.820395;stroke-linecap:butt;stroke-linejoin:round;stroke-miterlimit:4;stroke-dasharray:none;stroke-opacity:1;paint-order:normal;stop-color:#000000"
       id="rect42283"
       width="37.82402"
       height="4.2706103"
       x="46.984447"
       y="38.184254"
       ry="1.4235368" />
  </g>
  <g
     inkscape:label="Layer 1"
     inkscape:groupmode="layer"
     id="layer1">
    <g
       id="g36099"
       transform="translate(12.700001,-3.1750001)">
      <path
         style="fill:#318dc3;fill-opacity:1;stroke:#000000;stroke-width:0.12382;stroke-linecap:round;stroke-linejoin:round;stroke-opacity:0.05;stop-color:#000000"
         d="m 34.395834,15.873968 c 0,0 0,-5.292697 4.634703,-5.292697 4.634702,0 13.904109,0 13.904109,0 h 9.269407 4.634702 c 0,0 4.634704,0 4.634704,5.292697 0,5.292699 0,10.585398 0,10.585398 0,0 0,5.292698 -4.634704,5.292698 -4.634702,0 -27.808218,0 -27.808218,0 0,0 -4.634703,0 -4.634703,-5.292698 0,-5.292699 0,-10.585398 0,-10.585398 z"
         id="path855" />
      <ellipse
         style="fill:#d6d6d6;fill-opacity:1;stroke:#000000;stroke-width:0.12382;stroke-linecap:round;stroke-linejoin:round;stroke-opacity:0.05;stop-color:#000000"
         id="path971"
         cx="52.934647"
         cy="21.166668"
         rx="16.22146"
         ry="7.9390478" />
      <path
         style="fill:#454545;fill-opacity:1;stroke:#000000;stroke-width:0.132292;stroke-linecap:round;stroke-linejoin:round;stroke-opacity:0.05;stop-color:#000000"
         d="m 44.979168,34.395834 c 0,0 0,-2.645833 2.645833,-2.645833 h 10.583334 c 0,0 2.451089,0.05569 2.451089,2.701522 0,2.645834 -2.645833,2.645834 -2.645833,2.645834 l -10.38859,-0.05569 c -2.645834,0 -2.645833,-2.645833 -2.645833,-2.645833 z"
         id="path1006"
         sodipodi:nodetypes="cscsccc" />
      <path
         style="fill:#318dc3;fill-opacity:1;stroke:#000000;stroke-width:0.132292;stroke-linecap:round;stroke-linejoin:round;stroke-opacity:0.05;stop-color:#000000"
         d="m 39.687501,37.041668 h 26.458334 c 4.914606,0 8.485471,2.097863 5.291667,5.291666 -3.193804,3.193803 -34.395835,2.645833 -37.041668,0 -2.645834,-2.645833 0,-5.291667 5.291667,-5.291666"
         id="path4084"
         sodipodi:nodetypes="cczzc" />
    </g>
    <path
       style="fill:none;fill-opacity:1;stroke:#318dc3;stroke-width:2.64583;stroke-linecap:butt;stroke-linejoin:round;stroke-miterlimit:4;stroke-dasharray:none;stroke-opacity:1;paint-order:normal;stop-color:#000000"
       d="m 55.033336,39.158332 c 0,0 -22.193584,-0.2328 -21.797729,20.930163 l 0.253077,13.52987"
       id="path7078"
       sodipodi:nodetypes="csc" />
    <path
       style="fill:none;fill-opacity:1;stroke:#318dc3;stroke-width:2.64583;stroke-linecap:butt;stroke-linejoin:round;stroke-miterlimit:4;stroke-dasharray:none;stroke-opacity:1;paint-order:normal;stop-color:#000000"
       d="M 33.088727,87.548753 C 33.941023,94.558477 16.322491,98.975076 16.550599,106.51653"
       id="path35292"
       sodipodi:nodetypes="cc" />
    <g
       id="g28228"
       transform="translate(7.4083332,-5.2799723)">
      <rect
         style="fill:#f0e4bc;fill-opacity:1;stroke:#e0b41d;stroke-width:1.19062;stroke-linecap:round;stroke-linejoin:round;stroke-miterlimit:4;stroke-dasharray:none;stroke-opacity:1;stop-color:#000000"
         id="rect7855"
         width="23.812494"
         height="15.874997"
         x="46.302086"
         y="76.729172"
         ry="5.9531231" />
      <g
         id="g8830"
         transform="matrix(0.49999681,0,0,0.49999681,23.812669,42.264338)">
        <path
           style="fill:#d6d6d6;fill-opacity:1;stroke:#03080b;stroke-width:1.5875;stroke-linecap:butt;stroke-linejoin:round;stroke-miterlimit:4;stroke-dasharray:none;stroke-opacity:1;paint-order:normal;stop-color:#000000"
           d="m 50.270832,84.666666 2.645833,-5.291667 2.645834,5.291667 -2.645834,-2.645833 z"
           id="path7890" />
        <path
           style="fill:#000000;fill-opacity:1;stroke:#03080b;stroke-width:1.5875;stroke-linecap:round;stroke-linejoin:round;stroke-miterlimit:4;stroke-dasharray:none;stroke-opacity:1;paint-order:normal;stop-color:#000000"
           d="m 50.270832,87.3125 2.645834,-10e-7 h 2.645833 L 52.916665,89.958333 50.270832,87.3125"
           id="path7892"
           sodipodi:nodetypes="ccccc" />
      </g>
      <text
         xml:space="preserve"
         style="font-style:normal;font-variant:normal;font-weight:normal;font-stretch:normal;font-size:4.93889px;line-height:1.25;font-family:'Shuriken Boy Std';-inkscape-font-specification:'Shuriken Boy Std';letter-spacing:0px;word-spacing:0px;stroke-width:0.264583"
         x="54.111546"
         y="86.085922"
         id="text22122"><tspan
           sodipodi:role="line"
           id="tspan22120"
           style="font-style:normal;font-variant:normal;font-weight:normal;font-stretch:normal;font-size:4.93889px;font-family:'Shuriken Boy Std';-inkscape-font-specification:'Shuriken Boy Std';stroke-width:0.264583"
           x="54.111546"
           y="86.085922">1000</tspan></text>
    </g>
    <rect
       style="fill:#d6d6d6;fill-opacity:1;stroke:#318dc3;stroke-width:1.13316;stroke-linecap:round;stroke-linejoin:round;stroke-miterlimit:4;stroke-dasharray:none;stroke-opacity:1;stop-color:#000000"
       id="rect5393"
       width="22.663176"
       height="15.108785"
       x="22.53508"
       y="72.478798"
       ry="5.6657934" />
    <path
       style="fill:none;fill-opacity:1;stroke:#6e6e6e;stroke-width:0.79374999;stroke-linecap:round;stroke-linejoin:round;stroke-miterlimit:4;stroke-dasharray:none;stroke-opacity:1;stop-color:#000000"
       d="m 26.312276,76.255994 c 0,0 0,-0.840343 1.259065,-0.840343 1.259065,0 1.259065,0.840343 1.259065,0.840343 0,0 0,0.840344 1.259066,0.840344 1.259065,0 1.259065,-0.840344 1.259065,-0.840344 0,0 0,-0.840343 1.259066,-0.840343 0,0 1.259064,0 1.259064,0.840343 0,0.840343 1.259066,0.840343 1.259066,0.840343 0,0 1.259065,0 1.259065,-0.840343 0,-0.840343 1.259066,-0.840343 1.259066,-0.840343 0,0 1.259065,0 1.259065,0.840343 0,0.840343 1.259065,0.840343 1.259065,0.840343 0,0 1.259066,0 1.259066,-0.840343 v 0"
       id="path6205"
       sodipodi:nodetypes="cscsccscscsccc" />
    <path
       style="fill:none;fill-opacity:1;stroke:#6e6e6e;stroke-width:0.79374999;stroke-linecap:round;stroke-linejoin:round;stroke-miterlimit:4;stroke-dasharray:none;stroke-opacity:1;stop-color:#000000"
       d="m 26.312276,80.03319 c 0,0 0,-0.840344 1.259065,-0.840344 1.259065,0 1.259065,0.840344 1.259065,0.840344 0,0 0,0.840343 1.259066,0.840343 1.259065,0 1.259065,-0.840343 1.259065,-0.840343 0,0 0,-0.840344 1.259066,-0.840344 0,0 1.259064,0 1.259064,0.840344 0,0.840342 1.259066,0.840342 1.259066,0.840342 0,0 1.259065,0 1.259065,-0.840342 0,-0.840344 1.259066,-0.840344 1.259066,-0.840344 0,0 1.259065,0 1.259065,0.840344 0,0.840342 1.259065,0.840342 1.259065,0.840342 0,0 1.259066,0 1.259066,-0.840342 v 0"
       id="path6928"
       sodipodi:nodetypes="cscsccscscsccc" />
    <path
       style="fill:none;fill-opacity:1;stroke:#6e6e6e;stroke-width:0.79374999;stroke-linecap:round;stroke-linejoin:round;stroke-miterlimit:4;stroke-dasharray:none;stroke-opacity:1;stop-color:#000000"
       d="m 26.312275,83.810386 c 0,0 0,-0.840343 1.259065,-0.840343 1.259066,0 1.259066,0.840343 1.259066,0.840343 0,0 0,0.840343 1.259065,0.840343 1.259066,0 1.259066,-0.840343 1.259066,-0.840343 0,0 -1e-6,-0.840343 1.259065,-0.840343 0,0 1.259065,0 1.259065,0.840343 0,0.840343 1.259065,0.840343 1.259065,0.840343 0,0 1.259065,0 1.259065,-0.840343 0,-0.840343 1.259066,-0.840343 1.259066,-0.840343 0,0 1.259065,0 1.259065,0.840343 0,0.840343 1.259066,0.840343 1.259066,0.840343 0,0 1.259065,0 1.259065,-0.840343 v 0"
       id="path6930"
       sodipodi:nodetypes="cscsccscscsccc" />
    <g
       id="g36109"
       transform="matrix(0.58190627,0,0,0.58190627,68.931805,65.790939)">
      <path
         style="fill:#318dc3;fill-opacity:1;stroke:#000000;stroke-width:0.12382;stroke-linecap:round;stroke-linejoin:round;stroke-opacity:0.05;stop-color:#000000"
         d="m 34.395834,15.873968 c 0,0 0,-5.292697 4.634703,-5.292697 4.634702,0 13.904109,0 13.904109,0 h 9.269407 4.634702 c 0,0 4.634704,0 4.634704,5.292697 0,5.292699 0,10.585398 0,10.585398 0,0 0,5.292698 -4.634704,5.292698 -4.634702,0 -27.808218,0 -27.808218,0 0,0 -4.634703,0 -4.634703,-5.292698 0,-5.292699 0,-10.585398 0,-10.585398 z"
         id="path36101" />
      <ellipse
         style="fill:#d6d6d6;fill-opacity:1;stroke:#000000;stroke-width:0.12382;stroke-linecap:round;stroke-linejoin:round;stroke-opacity:0.05;stop-color:#000000"
         id="ellipse36103"
         cx="52.934647"
         cy="21.166668"
         rx="16.22146"
         ry="7.9390478" />
      <path
         style="fill:#454545;fill-opacity:1;stroke:#000000;stroke-width:0.132292;stroke-linecap:round;stroke-linejoin:round;stroke-opacity:0.05;stop-color:#000000"
         d="m 44.979168,34.395834 c 0,0 0,-2.645833 2.645833,-2.645833 h 10.583334 c 0,0 2.451089,0.05569 2.451089,2.701522 0,2.645834 -2.645833,2.645834 -2.645833,2.645834 l -10.38859,-0.05569 c -2.645834,0 -2.645833,-2.645833 -2.645833,-2.645833 z"
         id="path36105"
         sodipodi:nodetypes="cscsccc" />
      <path
         style="fill:#318dc3;fill-opacity:1;stroke:#000000;stroke-width:0.132292;stroke-linecap:round;stroke-linejoin:round;stroke-opacity:0.05;stop-color:#000000"
         d="m 39.687501,37.041668 h 26.458334 c 4.914606,0 8.485471,2.097863 5.291667,5.291666 -3.193804,3.193803 -34.395835,2.645833 -37.041668,0 -2.645834,-2.645833 0,-5.291667 5.291667,-5.291666"
         id="path36107"
         sodipodi:nodetypes="cczzc" />
    </g>
    <path
       style="fill:none;fill-opacity:1;stroke:#318dc3;stroke-width:2.64583;stroke-linecap:butt;stroke-linejoin:round;stroke-miterlimit:4;stroke-dasharray:none;stroke-opacity:1;paint-order:normal;stop-color:#000000"
       d="m 75.313196,39.158332 c 0,0 21.258138,-0.229623 21.797725,20.930163 l 0.31052,12.176663"
       id="path36306"
       sodipodi:nodetypes="csc" />
    <path
       style="fill:none;fill-opacity:1;stroke:#318dc3;stroke-width:2.64583;stroke-linecap:butt;stroke-linejoin:round;stroke-miterlimit:4;stroke-dasharray:none;stroke-opacity:1;paint-order:normal;stop-color:#000000"
       d="m 65.394335,40.801736 0.430739,30.801999"
       id="path36431" />
    <path
       style="fill:none;fill-opacity:1;stroke:#318dc3;stroke-width:2.64583;stroke-linecap:butt;stroke-linejoin:round;stroke-miterlimit:4;stroke-dasharray:none;stroke-opacity:1;paint-order:normal;stop-color:#000000"
       d="m 96.588731,87.548753 c 0.8523,7.009724 -16.766236,11.426323 -16.538128,18.967777"
       id="path36863"
       sodipodi:nodetypes="cc" />
    <g
       id="g35004"
       transform="translate(-43.976363,-8.1098092)">
      <rect
         style="fill:#f0e4bc;fill-opacity:1;stroke:#e0b41d;stroke-width:1.19062;stroke-linecap:round;stroke-linejoin:round;stroke-miterlimit:4;stroke-dasharray:none;stroke-opacity:1;stop-color:#000000"
         id="rect32814"
         width="23.812494"
         height="15.874997"
         x="47.625008"
         y="113.77083"
         ry="5.9531231" />
      <path
         style="fill:#060501;fill-opacity:1;stroke:none;stroke-width:0.231188;stroke-linecap:round;stroke-linejoin:round;stroke-miterlimit:4;stroke-dasharray:none;stroke-opacity:1;paint-order:normal;stop-color:#000000"
         d="m 51.662901,119.08675 c 0,0 2.312232,1e-5 2.312232,1.15612 0,1.15611 -1.820169,1.15611 -2.745061,1.15611 0.924892,0 2.745338,-2.2e-4 2.745061,1.15612 0,1.15612 -2.312232,1.15612 -2.312232,1.15612 h -1.156117 v -0.57806 h 0.578058 v -3.46835 h -0.578058 v -0.57806 z"
         id="path28265"
         sodipodi:nodetypes="czcccccccccc" />
      <text
         xml:space="preserve"
         style="font-style:normal;font-variant:normal;font-weight:normal;font-stretch:normal;font-size:4.93889px;line-height:1.25;font-family:'Shuriken Boy Std';-inkscape-font-specification:'Shuriken Boy Std';letter-spacing:0px;word-spacing:0px;stroke-width:0.264583"
         x="55.434467"
         y="123.12758"
         id="text32824"><tspan
           sodipodi:role="line"
           id="tspan32822"
           style="font-style:normal;font-variant:normal;font-weight:normal;font-stretch:normal;font-size:4.93889px;font-family:'Shuriken Boy Std';-inkscape-font-specification:'Shuriken Boy Std';stroke-width:0.264583"
           x="55.434467"
           y="123.12758">5000</tspan></text>
    </g>
    <path
       style="fill:none;fill-opacity:1;stroke:#318dc3;stroke-width:2.64583;stroke-linecap:butt;stroke-linejoin:round;stroke-miterlimit:4;stroke-dasharray:none;stroke-opacity:1;paint-order:normal;stop-color:#000000"
       d="m 103.36152,87.548753 c -0.8523,7.009724 16.76624,11.426323 16.53813,18.967777"
       id="path36865"
       sodipodi:nodetypes="cc" />
    <g
       id="g36316"
       transform="translate(56.565309,-8.1098092)">
      <rect
         style="fill:#f0e4bc;fill-opacity:1;stroke:#e0b41d;stroke-width:1.19062;stroke-linecap:round;stroke-linejoin:round;stroke-miterlimit:4;stroke-dasharray:none;stroke-opacity:1;stop-color:#000000"
         id="rect36308"
         width="23.812494"
         height="15.874997"
         x="47.625008"
         y="113.77083"
         ry="5.9531231" />
      <path
         style="fill:#060501;fill-opacity:1;stroke:none;stroke-width:0.231188;stroke-linecap:round;stroke-linejoin:round;stroke-miterlimit:4;stroke-dasharray:none;stroke-opacity:1;paint-order:normal;stop-color:#000000"
         d="m 51.662901,119.08675 c 0,0 2.312232,1e-5 2.312232,1.15612 0,1.15611 -1.820169,1.15611 -2.745061,1.15611 0.924892,0 2.745338,-2.2e-4 2.745061,1.15612 0,1.15612 -2.312232,1.15612 -2.312232,1.15612 h -1.156117 v -0.57806 h 0.578058 v -3.46835 h -0.578058 v -0.57806 z"
         id="path36310"
         sodipodi:nodetypes="czcccccccccc" />
      <text
         xml:space="preserve"
         style="font-style:normal;font-variant:normal;font-weight:normal;font-stretch:normal;font-size:4.93889px;line-height:1.25;font-family:'Shuriken Boy Std';-inkscape-font-specification:'Shuriken Boy Std';letter-spacing:0px;word-spacing:0px;stroke-width:0.264583"
         x="55.434467"
         y="123.12758"
         id="text36314"><tspan
           sodipodi:role="line"
           id="tspan36312"
           style="font-style:normal;font-variant:normal;font-weight:normal;font-stretch:normal;font-size:4.93889px;font-family:'Shuriken Boy Std';-inkscape-font-specification:'Shuriken Boy Std';stroke-width:0.264583"
           x="55.434467"
           y="123.12758">2000</tspan></text>
    </g>
    <g
       id="g36093"
       transform="translate(24.870836,28.931847)">
      <rect
         style="fill:#f0e4bc;fill-opacity:1;stroke:#e0b41d;stroke-width:1.19062;stroke-linecap:round;stroke-linejoin:round;stroke-miterlimit:4;stroke-dasharray:none;stroke-opacity:1;stop-color:#000000"
         id="rect36081"
         width="23.812494"
         height="15.874997"
         x="46.302086"
         y="76.729172"
         ry="5.9531231" />
      <g
         id="g36087"
         transform="matrix(0.49999681,0,0,0.49999681,23.812669,42.264338)">
        <path
           style="fill:#d6d6d6;fill-opacity:1;stroke:#03080b;stroke-width:1.5875;stroke-linecap:butt;stroke-linejoin:round;stroke-miterlimit:4;stroke-dasharray:none;stroke-opacity:1;paint-order:normal;stop-color:#000000"
           d="m 50.270832,84.666666 2.645833,-5.291667 2.645834,5.291667 -2.645834,-2.645833 z"
           id="path36083" />
        <path
           style="fill:#000000;fill-opacity:1;stroke:#03080b;stroke-width:1.5875;stroke-linecap:round;stroke-linejoin:round;stroke-miterlimit:4;stroke-dasharray:none;stroke-opacity:1;paint-order:normal;stop-color:#000000"
           d="m 50.270832,87.3125 2.645834,-10e-7 h 2.645833 L 52.916665,89.958333 50.270832,87.3125"
           id="path36085"
           sodipodi:nodetypes="ccccc" />
      </g>
      <text
         xml:space="preserve"
         style="font-style:normal;font-variant:normal;font-weight:normal;font-stretch:normal;font-size:4.93889px;line-height:1.25;font-family:'Shuriken Boy Std';-inkscape-font-specification:'Shuriken Boy Std';letter-spacing:0px;word-spacing:0px;stroke-width:0.264583"
         x="54.111546"
         y="86.085922"
         id="text36091"><tspan
           sodipodi:role="line"
           id="tspan36089"
           style="font-style:normal;font-variant:normal;font-weight:normal;font-stretch:normal;font-size:4.93889px;font-family:'Shuriken Boy Std';-inkscape-font-specification:'Shuriken Boy Std';stroke-width:0.264583"
           x="54.111546"
           y="86.085922">1000</tspan></text>
    </g>
    <g
       id="g36875"
       transform="translate(-14.343029,-8.1098092)">
      <rect
         style="fill:#f0e4bc;fill-opacity:1;stroke:#e0b41d;stroke-width:1.19062;stroke-linecap:round;stroke-linejoin:round;stroke-miterlimit:4;stroke-dasharray:none;stroke-opacity:1;stop-color:#000000"
         id="rect36867"
         width="23.812494"
         height="15.874997"
         x="47.625008"
         y="113.77083"
         ry="5.9531231" />
      <path
         style="fill:#060501;fill-opacity:1;stroke:none;stroke-width:0.231188;stroke-linecap:round;stroke-linejoin:round;stroke-miterlimit:4;stroke-dasharray:none;stroke-opacity:1;paint-order:normal;stop-color:#000000"
         d="m 51.662901,119.08675 c 0,0 2.312232,1e-5 2.312232,1.15612 0,1.15611 -1.820169,1.15611 -2.745061,1.15611 0.924892,0 2.745338,-2.2e-4 2.745061,1.15612 0,1.15612 -2.312232,1.15612 -2.312232,1.15612 h -1.156117 v -0.57806 h 0.578058 v -3.46835 h -0.578058 v -0.57806 z"
         id="path36869"
         sodipodi:nodetypes="czcccccccccc" />
      <text
         xml:space="preserve"
         style="font-style:normal;font-variant:normal;font-weight:normal;font-stretch:normal;font-size:4.93889px;line-height:1.25;font-family:'Shuriken Boy Std';-inkscape-font-specification:'Shuriken Boy Std';letter-spacing:0px;word-spacing:0px;stroke-width:0.264583"
         x="55.434467"
         y="123.12758"
         id="text36873"><tspan
           sodipodi:role="line"
           id="tspan36871"
           style="font-style:normal;font-variant:normal;font-weight:normal;font-stretch:normal;font-size:4.93889px;font-family:'Shuriken Boy Std';-inkscape-font-specification:'Shuriken Boy Std';stroke-width:0.264583"
           x="55.434467"
           y="123.12758">500</tspan></text>
    </g>
    <path
       style="fill:none;fill-opacity:1;stroke:#318dc3;stroke-width:2.64583;stroke-linecap:butt;stroke-linejoin:round;stroke-miterlimit:4;stroke-dasharray:none;stroke-opacity:1;paint-order:normal;stop-color:#000000"
       d="m 34.569835,87.548753 c -0.852296,7.009724 16.766233,11.426323 16.538123,18.967777"
       id="path36877"
       sodipodi:nodetypes="cc" />
  </g>
</svg>
